<?xml version="1.0" encoding="UTF-8" standalone="no"?>
<svg
   xmlns:dc="http://purl.org/dc/elements/1.1/"
   xmlns:cc="http://creativecommons.org/ns#"
   xmlns:rdf="http://www.w3.org/1999/02/22-rdf-syntax-ns#"
   xmlns:svg="http://www.w3.org/2000/svg"
   xmlns="http://www.w3.org/2000/svg"
   xmlns:sodipodi="http://sodipodi.sourceforge.net/DTD/sodipodi-0.dtd"
   xmlns:inkscape="http://www.inkscape.org/namespaces/inkscape"
   viewBox="0 0 249.5 74.5"
   enable-background="new 0 0 249.5 74.5"
   id="svg3779"
   version="1.1"
   inkscape:version="0.48.4 r9939"
   width="100%"
   height="100%"
   sodipodi:docname="forge-logo.svg">
  <metadata
     id="metadata3789">
    <rdf:RDF>
      <cc:Work
         rdf:about="">
        <dc:format>image/svg+xml</dc:format>
        <dc:type
           rdf:resource="http://purl.org/dc/dcmitype/StillImage" />
      </cc:Work>
    </rdf:RDF>
  </metadata>
  <defs
     id="defs3787" />
  <sodipodi:namedview
     pagecolor="#ffffff"
     bordercolor="#666666"
     borderopacity="1"
     objecttolerance="10"
     gridtolerance="10"
     guidetolerance="10"
     inkscape:pageopacity="0"
     inkscape:pageshadow="2"
     inkscape:window-width="1141"
     inkscape:window-height="786"
     id="namedview3785"
     showgrid="false"
     inkscape:zoom="1.1462926"
     inkscape:cx="-11.340909"
     inkscape:cy="37.25"
     inkscape:window-x="0"
     inkscape:window-y="0"
     inkscape:window-maximized="0"
     inkscape:current-layer="svg3779" />
  <g
     id="g3781"
     transform="translate(-1.1276223,0.6171329)"
     style="fill:#777777;fill-opacity:1">
    <path
       d="m 95.7,18.7 c 3.9,0 5.7,0.7 6.8,2.1 1.6,2.1 2.5,6.3 -0.1,16.6 -2.6,10.3 -5.5,14.4 -8.2,16.6 -1.8,1.4 -4,2.1 -7.9,2.1 H 73.8 C 69.9,56.1 68,55.4 67,54 65.4,51.9 64.5,47.7 67.2,37.4 69.8,27.1 72.8,23 75.5,20.8 c 1.8,-1.4 4,-2.1 7.9,-2.1 H 95.7 z M 77.5,47 c 0.2,0.3 0.7,0.4 2.3,0.4 h 4.8 c 1.6,0 2.2,-0.1 2.6,-0.4 0.5,-0.4 1.4,-1.4 3.4,-9.6 2.1,-8.2 1.7,-9.2 1.4,-9.6 -0.2,-0.3 -0.7,-0.4 -2.3,-0.4 H 85 c -1.6,0 -2.2,0.1 -2.6,0.4 -0.5,0.4 -1.4,1.4 -3.4,9.6 -2.2,8.3 -1.8,9.2 -1.5,9.6 z M 126,44 c -0.4,-0.5 -0.8,-0.7 -3.2,-0.7 h -4.7 c -0.5,0 -1,0.4 -1.1,0.9 l -2.7,11 c -0.1,0.5 -0.6,0.9 -1.1,0.9 h -9.7 c -0.5,0 -0.8,-0.4 -0.7,-0.9 l 8.9,-35.6 c 0.1,-0.5 0.6,-0.9 1.1,-0.9 h 22.8 c 3.7,0 5.7,0.5 6.8,1.9 1.2,1.7 1.6,3.5 0.3,8.7 -1.7,7 -4.3,9 -8.8,9.9 v 0.1 c 3.5,0.9 5.4,2.1 4.2,7.5 -0.7,3.1 -1.2,6.2 -1.5,8.3 -0.1,0.5 -0.6,1 -1.1,1 h -9.9 c -0.4,0 -0.8,-0.3 -0.7,-0.8 0.3,-2.3 0.7,-4.6 1.3,-7.5 0.4,-2.7 0.2,-3.2 -0.2,-3.8 z m -0.7,-8.8 c 2.1,0 2.7,-0.1 3.1,-0.4 0.7,-0.5 1.2,-1.4 1.7,-3.6 0.5,-2.2 0.4,-3 0,-3.5 -0.3,-0.3 -0.8,-0.4 -2.9,-0.4 H 122 c -0.5,0 -1,0.4 -1.1,0.9 l -1.5,6.2 c -0.1,0.5 0.2,0.9 0.7,0.9 h 5.2 z m 48.9,-16.8 c 4,0 6.1,0.5 7.3,1.9 1.4,1.7 1.9,4.3 0.8,10.1 -0.1,0.5 -0.6,0.9 -1.1,0.9 h -9.3 c -0.5,0 -0.8,-0.4 -0.7,-0.8 0.4,-2.3 -0.1,-2.6 -0.4,-3 -0.2,-0.3 -0.6,-0.4 -2.3,-0.4 h -4.8 c -1.7,0 -2.2,0.1 -2.6,0.4 -0.6,0.5 -1.7,2.2 -3.5,9.8 -1.8,7.6 -1.5,9.4 -1.2,9.9 0.2,0.3 0.7,0.4 2.4,0.4 h 5.1 c 1.5,0 2.1,-0.1 2.5,-0.4 0.5,-0.4 1.5,-1.4 2.1,-4.1 l 0.1,-0.3 h -7.2 c -0.5,0 -0.8,-0.4 -0.7,-0.9 l 1.4,-6 c 0.1,-0.5 0.6,-0.9 1.1,-0.9 h 17.3 c 0.5,0 0.8,0.4 0.7,0.9 l -0.9,3.7 c -2.1,9.1 -4.6,12.3 -7.2,14.4 -1.9,1.6 -4.6,2.2 -8.1,2.2 h -12.5 c -3.9,0 -5.8,-0.7 -6.9,-2.2 -1.7,-2.2 -2.6,-6.3 -0.1,-16.7 2.5,-10.4 5.4,-14.6 8.1,-16.7 1.8,-1.5 4,-2.2 7.9,-2.2 h 12.7 z m 39,37.8 h -29.9 c -0.5,0 -0.8,-0.4 -0.7,-0.9 l 8.4,-36 c 0.1,-0.5 0.6,-0.9 1.1,-0.9 h 34.8 c 0.6,0 0.9,0.6 0.5,1.2 -1.5,2.4 -7.3,7.5 -13.8,7.5 h -12.1 c -0.5,0 -1,0.4 -1.1,0.9 l -0.9,4 c -0.1,0.5 0.2,0.9 0.7,0.9 h 16.3 c 0.5,0 0.8,0.4 0.7,0.9 l -1.4,6.3 c -0.1,0.5 -0.6,0.9 -1.1,0.9 h -16.3 c -0.5,0 -1,0.4 -1.1,0.9 l -1.1,4.6 c -0.1,0.5 0.2,0.9 0.7,0.9 h 18.3 c 0.5,0 0.8,0.4 0.7,0.9 l -1.6,6.9 c -0.1,0.6 -0.6,1 -1.1,1 z M 69.5,18.7 h -41 c -0.5,0 -1,0.4 -1.1,0.9 l -1,3.6 c -0.1,0.4 0.1,0.7 0.4,0.9 1.6,0.5 10.2,0.7 8.9,5.5 l -0.3,1.3 -3.5,13.1 -0.3,1.3 c -1.3,4.8 -5.9,5 -7.8,5.5 -0.4,0.1 -0.7,0.5 -0.8,0.9 l -1,3.6 c -0.1,0.5 0.2,0.9 0.7,0.9 h 16.7 c 0.5,0 1,-0.4 1.1,-0.9 l 3,-11.6 c 0.1,-0.5 0.6,-0.9 1.1,-0.9 h 10.7 c 0.5,0 1,-0.4 1.1,-0.9 L 58,35.7 c 0.1,-0.5 -0.2,-0.9 -0.7,-0.9 H 46.6 c -0.5,0 -0.8,-0.4 -0.7,-0.9 l 1.5,-5.6 c 0.1,-0.5 0.6,-0.9 1.1,-0.9 h 16.1 c 0.5,0 1,-0.4 1.1,-0.9 L 70,19.7 c 0.2,-0.6 0,-1 -0.5,-1 z"
       id="path3783"
       inkscape:connector-curvature="0"
       style="fill:#777777;fill-opacity:1" />
  </g>
</svg>
